<svg width="6000" height="6000" xmlns="http://www.w3.org/2000/svg" xmlns:svg="http://www.w3.org/2000/svg">
 <defs>
  <style type="text/css">
   <![CDATA[
    .fil0 {fill:#DA251D}
   ]]>
  </style>
 </defs>
 <g>
  <title>Layer 1</title>
  <text fill="#ffffff" stroke-width="0" x="2834.636965" y="4652.04336" id="svg_5" font-size="24" font-family="Helvetica Neue, Helvetica, Arial" text-anchor="middle" xml:space="preserve" transform="matrix(28.27951750779179,0,0,40.52701300069815,-77180.86088747262,-185283.47772540466) " stroke="#ffffff">METASEARCH</text>
  <g opacity="0.95" id="Layer 1">
   <path class="fil0" d="m5975.887695,2987.922852c0,823 -291,1527 -874,2109c-582,584 -1286,875 -2109.000244,875c-823,0 -1527,-291 -2108.999756,-875c-583,-582 -873.999987,-1286 -873.999987,-2109c0,-823 290.999987,-1527 873.999987,-2109c581.999756,-583.000031 1285.999756,-874.000023 2108.999756,-874.000023c823.000244,0 1527.000244,290.999992 2109.000244,874.000023c583,582 874,1286 874,2109zm-476,0c0,-692 -245,-1283 -735,-1772c-489,-490 -1079,-735.000031 -1772.000244,-735.000031c-619,0 -1164,202.000031 -1632,602.000031l3533.000244,3534c404,-469 606,-1012 606,-1629zm-959,1968l-3519,-3520c-357,454 -536,972 -536,1552c0,693 245,1284 734.999756,1772c489,490 1079,735 1772,735c578.000244,0 1094.000244,-180 1548.000244,-539z" id="svg_1"/>
  </g>
 </g>
</svg>